<svg width="252" height="323" viewBox="0 0 252 323" fill="none" xmlns="http://www.w3.org/2000/svg">
<path d="M51.4533 -31.1255V10.1783C51.4533 13.2979 53.9822 15.8267 57.1017 15.8267H96.9934C100.113 15.8267 102.642 18.3556 102.642 21.4751V61.3668C102.642 64.4864 105.171 67.0152 108.29 67.0152H148.182C151.301 67.0152 153.83 69.5441 153.83 72.6636V112.555C153.83 115.675 156.359 118.204 159.479 118.204H199.37C202.49 118.204 205.019 120.733 205.019 123.852V163.744C205.019 166.863 207.548 169.392 210.667 169.392H251.971M0.264771 -31.1255V10.1783C0.264771 13.2979 2.79364 15.8267 5.91316 15.8267H45.8049C48.9244 15.8267 51.4533 18.3556 51.4533 21.4751V61.3668C51.4533 64.4864 53.9821 67.0152 57.1017 67.0152H96.9934C100.113 67.0152 102.642 69.5441 102.642 72.6636V112.555C102.642 115.675 100.113 118.204 96.9934 118.204H57.1017C53.9821 118.204 51.4533 115.675 51.4533 112.555V71.9576L51.4039 71.6239C51.0248 69.0656 48.8533 67.1553 46.2675 67.1056L41.5686 67.0152H5.91316C2.79364 67.0152 0.264771 69.5441 0.264771 72.6636V112.555C0.264771 115.675 2.79364 118.204 5.91316 118.204H46.1579L47.4988 118.293C49.7241 118.441 51.4533 120.29 51.4533 122.52V126.853M51.4533 122.44V163.744C51.4533 166.863 53.9822 169.392 57.1017 169.392H96.9934C100.113 169.392 102.642 171.921 102.642 175.041V214.932C102.642 218.052 105.171 220.581 108.29 220.581H148.182C151.301 220.581 153.83 223.11 153.83 226.229V266.121C153.83 269.24 156.359 271.769 159.479 271.769H199.37C202.49 271.769 205.019 274.298 205.019 277.418V317.309C205.019 320.429 207.548 322.958 210.667 322.958H251.971" stroke="url(#paint0_linear_2_1525)" stroke-opacity="0.8" stroke-width="0.529536"/>
<defs>
<linearGradient id="paint0_linear_2_1525" x1="0.264771" y1="-31.1255" x2="246.323" y2="273.358" gradientUnits="userSpaceOnUse">
<stop offset="0.0819437" stop-color="white"/>
<stop offset="0.208333" stop-color="#F96D17"/>
<stop offset="0.526042" stop-color="#C471ED"/>
<stop offset="0.9375" stop-color="#F37D35"/>
</linearGradient>
</defs>
</svg>
